<svg version="1" xmlns="http://www.w3.org/2000/svg" width="353.333" height="353.333" viewBox="0 0 265.000000 265.000000"><path d="M120.2 14.1c-17.8 2.1-27.8 5.1-42.5 12.7-23 11.9-41.1 30.2-50.6 51.4-6.5 14.6-12.6 36.6-10.7 38.5.4.5 4 .7 7.9.7 11.6-.2 25.9-6.9 45.2-20.9 8.9-6.5 22.5-19 23.3-21.4.4-1.2-4-.5-14.1 2-13.9 3.5-29 9.6-37.7 15.2-4 2.5-4.2 2.6-1.5.3 8.1-6.9 37.1-20.5 60.5-28.3 21.9-7.4 43.9-19.2 54.9-29.7 4.2-4 11.1-13.6 11.1-15.5 0-.9-10.5-3.5-19-4.6-7.3-1-20-1.1-26.8-.4zM36 95.4c0 .2-.8 1-1.7 1.7-1.6 1.3-1.7 1.2-.4-.4 1.3-1.6 2.1-2.1 2.1-1.3zM202.5 50c-17.7 3.6-44.8 17.8-64.8 33.9-7.8 6.4-19.7 17.9-19.7 19.1 0 1.4 28.9-5.9 42.5-10.7 20-7.1 35.7-17.1 49.9-31.7 4.7-4.8 5.5-5.4 4-2.7-5.4 9.6-24.2 24.1-44 34.1-9.7 4.9-16.2 7.2-51.9 18.5-33.8 10.6-51.2 17.3-62 23.8-7.5 4.5-19.5 13.1-22.2 15.9-10.5 10.9-12.1 30.1-3.8 44.1 4.1 6.9 11.3 15.5 15.8 18.8 4 3 4.5 3.1 12.2 2.6 10.2-.6 23.5-5 37.5-12.3 9.1-4.8 26.5-15.6 28-17.4.3-.3 2.5-2.1 5-4 5.7-4.3 21.1-19.2 20.5-19.8-.7-.7-23.9 4.7-33.4 7.8-23.8 7.7-34.3 13.3-52.1 27.8l-5.5 4.5 6-6.2c7.7-7.9 22.3-17.7 35.6-24 5.7-2.7 21.9-8.6 35.9-13.1 36.2-11.6 42.1-13.6 54.9-18.8 25-9.9 41.5-22.5 48.8-37.1 4.9-10 3.1-22.1-5.2-34.7-4.7-7-15.4-18.6-16.6-17.8-.5.3-.9.1-.9-.4 0-1.1-9.3-1.3-14.5-.2zM231.6 151c-11.8 3.1-25.3 10.7-40.1 22.5-8.7 6.9-19.6 17.6-19 18.6 1.2 1.8 26.1-5.3 39.3-11.2 10.2-4.6 7.1-2.4-5.8 4.1-14 7-21.3 10-41.7 17.1-29.3 10.1-51.4 24-61.4 38.5-1.6 2.3-2.9 4.7-2.9 5.3 0 4.2 28.1 7.7 47 5.7 38.7-4 73.8-28 90.3-61.8 7-14.3 13.8-37 11.8-39.1-1.6-1.6-10.7-1.5-17.5.3zm3.4 15.3c0 .2-1 1.2-2.2 2.3l-2.3 1.9 1.9-2.3c1.8-2.1 2.6-2.7 2.6-1.9zm-8.5 6.7c-.3.5-1.6 1.5-2.8 2.1-1.9.9-1.9.8.3-1 2.8-2.3 3.4-2.6 2.5-1.1z"/></svg>