<?xml version="1.0" encoding="iso-8859-1"?>
<!-- Generator: Adobe Illustrator 19.0.0, SVG Export Plug-In . SVG Version: 6.00 Build 0)  -->
<svg version="1.1" id="Capa_1" xmlns="http://www.w3.org/2000/svg" xmlns:xlink="http://www.w3.org/1999/xlink" x="0px" y="0px"
	 viewBox="0 0 512 512" style="enable-background:new 0 0 512 512;" xml:space="preserve">
<path style="fill:#FF5252;" d="M437,512H75c-41.355,0-75-33.645-75-75V75C0,33.645,33.645,0,75,0h362c41.355,0,75,33.645,75,75v362
	C512,478.355,478.355,512,437,512z"/>
<path style="fill:#EA3939;" d="M437,0H256v512h181c41.355,0,75-33.645,75-75V75C512,33.645,478.355,0,437,0z"/>
<g>
	<path style="fill:#FFEE58;" d="M376,421c-8.284,0-15-6.716-15-15V226c0-57.897-47.103-105-105-105s-105,47.103-105,105v180
		c0,8.284-6.716,15-15,15s-15-6.716-15-15V226c0-74.439,60.561-135,135-135s135,60.561,135,135v180C391,414.284,384.284,421,376,421
		z"/>
	<path style="fill:#FFEE58;" d="M326,371c-8.284,0-15-6.716-15-15V226c0-30.327-24.673-55-55-55s-55,24.673-55,55v130
		c0,8.284-6.716,15-15,15s-15-6.716-15-15V226c0-46.869,38.131-85,85-85s85,38.131,85,85v130C341,364.284,334.284,371,326,371z"/>
	<path style="fill:#FFEE58;" d="M236,321c-8.284,0-15-6.716-15-15v-80c0-19.299,15.701-35,35-35s35,15.701,35,35v60
		c0,8.284-6.716,15-15,15s-15-6.716-15-15v-60c0-2.757-2.243-5-5-5s-5,2.243-5,5v80C251,314.284,244.284,321,236,321z"/>
</g>
<g>
	<path style="fill:#FDD747;" d="M256,91v30c57.897,0,105,47.103,105,105v180c0,8.284,6.716,15,15,15s15-6.716,15-15V226
		C391,151.561,330.439,91,256,91z"/>
	<path style="fill:#FDD747;" d="M256,141v30c30.327,0,55,24.673,55,55v130c0,8.284,6.716,15,15,15s15-6.716,15-15V226
		C341,179.131,302.869,141,256,141z"/>
	<path style="fill:#FDD747;" d="M256,191v30c2.757,0,5,2.243,5,5v60c0,8.284,6.716,15,15,15s15-6.716,15-15v-60
		C291,206.701,275.299,191,256,191z"/>
	<path style="fill:#FDD747;" d="M276,371c-8.284,0-15-6.716-15-15v-18c0-8.284,6.716-15,15-15s15,6.716,15,15v18
		C291,364.284,284.284,371,276,371z"/>
</g>
<g>
</g>
<g>
</g>
<g>
</g>
<g>
</g>
<g>
</g>
<g>
</g>
<g>
</g>
<g>
</g>
<g>
</g>
<g>
</g>
<g>
</g>
<g>
</g>
<g>
</g>
<g>
</g>
<g>
</g>
</svg>
