<?xml version="1.0" encoding="iso-8859-1"?>
<!-- Generator: Adobe Illustrator 19.0.0, SVG Export Plug-In . SVG Version: 6.00 Build 0)  -->
<svg version="1.1" id="Capa_1" xmlns="http://www.w3.org/2000/svg" xmlns:xlink="http://www.w3.org/1999/xlink" x="0px" y="0px"
	 viewBox="0 0 512 512" style="enable-background:new 0 0 512 512;" xml:space="preserve">
<path style="fill:#ACE3FC;" d="M286,151h-60V41h60V151z"/>
<path style="fill:#86D6F2;" d="M286,151h-30V41h30V151z"/>
<path style="fill:#FFEA84;" d="M0,131v340h512V131H0z"/>
<path style="fill:#FFDC40;" d="M256,131v340h256V131H256z"/>
<path style="fill:#0C61C6;" d="M90,356c0-33.137,26.863-60,60-60c-16.569,0-30-13.432-30-30s13.431-30,30-30s30,13.432,30,30
	s-13.431,30-30,30c33.137,0,60,26.863,60,60H90z"/>
<g>
	<rect x="286" y="346" style="fill:#0A4EAF;" width="112" height="30"/>
	<rect x="286" y="286" style="fill:#0A4EAF;" width="142" height="30"/>
	<rect x="286" y="226" style="fill:#0A4EAF;" width="142" height="30"/>
</g>
<g>
</g>
<g>
</g>
<g>
</g>
<g>
</g>
<g>
</g>
<g>
</g>
<g>
</g>
<g>
</g>
<g>
</g>
<g>
</g>
<g>
</g>
<g>
</g>
<g>
</g>
<g>
</g>
<g>
</g>
</svg>
