<?xml version="1.0" encoding="iso-8859-1"?>
<!-- Generator: Adobe Illustrator 19.0.0, SVG Export Plug-In . SVG Version: 6.00 Build 0)  -->
<svg version="1.1" id="Capa_1" xmlns="http://www.w3.org/2000/svg" xmlns:xlink="http://www.w3.org/1999/xlink" x="0px" y="0px"
	 viewBox="0 0 464 464" style="enable-background:new 0 0 464 464;" xml:space="preserve">
<path style="fill:#7D8D9C;" d="M156,0h176c17.673,0,32,14.327,32,32v400c0,17.673-14.327,32-32,32H156c-17.673,0-32-14.327-32-32V32
	C124,14.327,138.327,0,156,0z"/>
<path style="fill:#87CEE9;" d="M124,72h240v328H124V72z"/>
<g>
	<path style="fill:#AABECE;" d="M188,32h112v16H188V32z"/>
	<path style="fill:#AABECE;" d="M228,424h32v16h-32V424z"/>
</g>
<g>
	<path style="fill:#E9686A;" d="M148,96h32v16h-32V96z"/>
	<path style="fill:#E9686A;" d="M196,96h32v16h-32V96z"/>
	<path style="fill:#E9686A;" d="M260,128h16v16h-16V128z"/>
	<path style="fill:#E9686A;" d="M292,112h16v32h-16V112z"/>
	<path style="fill:#E9686A;" d="M324,96h16v48h-16V96z"/>
</g>
<path style="fill:#FCF05A;" d="M204,176h256v176H204V176z"/>
<path style="fill:#FDBD40;" d="M204,176l128,96l128-96H204z"/>
<g>
	<path style="fill:#394D5C;" d="M180,200H12c-4.418,0-8-3.582-8-8s3.582-8,8-8h168c4.418,0,8,3.582,8,8S184.418,200,180,200z"/>
	<path style="fill:#394D5C;" d="M180,232H52c-4.418,0-8-3.582-8-8s3.582-8,8-8h128c4.418,0,8,3.582,8,8S184.418,232,180,232z"/>
	<path style="fill:#394D5C;" d="M204,344h-32c-4.418,0-8-3.582-8-8s3.582-8,8-8h32c4.418,0,8,3.582,8,8S208.418,344,204,344z"/>
	<path style="fill:#394D5C;" d="M204,312h-48c-4.418,0-8-3.582-8-8s3.582-8,8-8h48c4.418,0,8,3.582,8,8S208.418,312,204,312z"/>
</g>
<g>
</g>
<g>
</g>
<g>
</g>
<g>
</g>
<g>
</g>
<g>
</g>
<g>
</g>
<g>
</g>
<g>
</g>
<g>
</g>
<g>
</g>
<g>
</g>
<g>
</g>
<g>
</g>
<g>
</g>
</svg>
