<?xml version="1.0" encoding="iso-8859-1"?>
<!-- Generator: Adobe Illustrator 19.0.0, SVG Export Plug-In . SVG Version: 6.00 Build 0)  -->
<svg version="1.1" id="Capa_1" xmlns="http://www.w3.org/2000/svg" xmlns:xlink="http://www.w3.org/1999/xlink" x="0px" y="0px"
	 viewBox="0 0 512 512" style="enable-background:new 0 0 512 512;" xml:space="preserve">
<path style="fill:#0A4EAF;" d="M271,75v377c0,15-5.4,28.799-15,39.3c-10.8,12.599-27.001,20.7-45,20.7c-32.999,0-60-27.001-60-60
	c0-8.401,6.599-15,15-15s15,6.599,15,15c0,16.5,13.5,30,30,30s30-13.5,30-30V75c0-8.401,6.599-15,15-15S271,66.599,271,75z"/>
<path style="fill:#FEDB41;" d="M482.601,402.8c-0.3,0.901-0.601,1.8-0.601,2.701c-4.2,5.4-30,16.5-75,16.5
	c-46.5,0-72.299-12.001-75-15c0-1.5-0.3-3.001-0.601-4.2L302,407v60c0,31.199,52.8,45,105,45s105-13.801,105-45v-60L482.601,402.8z"
	/>
<path style="fill:#FFCC33;" d="M482.601,402.8L512,407v60c0,31.199-52.8,45-105,45v-90c45,0,70.8-11.1,75-16.5
	C482,404.599,482.3,403.7,482.601,402.8z"/>
<path style="fill:#FEA832;" d="M482.601,342.8c-0.3,0.901-0.601,1.8-0.601,2.701c-4.2,5.4-30,16.5-75,16.5
	c-46.5,0-72.299-12.001-75-15V346.1l-30,0.9v60c0,31.199,52.8,45,105,45s105-13.801,105-45v-60L482.601,342.8z"/>
<path style="fill:#FE9923;" d="M512,347v60c0,31.199-52.8,45-105,45v-90c45,0,70.8-11.1,75-16.5c0-0.901,0.3-1.8,0.601-2.701
	L512,347z"/>
<path style="fill:#FEDB41;" d="M407,302c-52.2,0-105,13.799-105,45c0,31.199,52.8,45,105,45s105-13.801,105-45
	C512,315.799,459.2,302,407,302z"/>
<path style="fill:#FFCC33;" d="M407,392v-90c52.2,0,105,13.799,105,45C512,378.199,459.2,392,407,392z"/>
<path style="fill:#0D70B2;" d="M512,252.299c0,8.101-6.301,15-14.7,15c-9,0.3-15-6-15.3-14.099c-1.199-24.3-20.7-43.2-45-43.2
	c-24.901,0-45,20.099-45,45L256,81.899l-3.3-4.2L120,255c0-24.901-20.099-45-45-45c-22.5,0-41.7,16.8-44.7,39.3
	c0,1.199-0.3,2.401-0.3,3.6c-0.3,8.399-6.899,13.801-15.3,14.399c-8.101-0.3-14.7-6.899-14.7-15C1.5,113.099,116.8,0,256,0
	S510.5,113.099,512,252.299z"/>
<path style="fill:#095C92;" d="M512,252.299c0,8.101-6.301,15-14.7,15c-9,0.3-15-6-15.3-14.099c-1.199-24.3-20.7-43.2-45-43.2
	c-24.901,0-45,20.099-45,45L256,81.899V0C395.2,0,510.5,113.099,512,252.299z"/>
<path style="fill:#18A7FC;" d="M392,255c0,8.399-6.599,15-15,15s-15-6.601-15-15v-3.9c0-0.3,0-0.3,0-0.3l-0.3-0.3
	c-2.101-22.801-21.9-40.5-44.7-40.5c-24.901,0-46,20.099-46,45c0,8.399-6.599,15-15,15s-15-6.601-15-15c0-24.901-21.099-45-46-45
	c-22.8,0-42.599,17.699-44.7,40.499l-0.3,0.3c0,0,0,0,0,0.3v3.9c0,8.399-6.599,15-15,15s-15-6.601-15-15c0-2.1,0.3-3.9,0.3-6
	c0,0,0,0,0-0.3C121.5,114.3,177.1,7.5,248.2,0.3C250.6,0,253.001,0,256,0c2.701,0,5.4,0,8.401,0.3
	C334.9,7.5,390.5,114.3,391.7,248.699c0,0.3,0,0.3,0,0.3C391.7,251.1,392,252.9,392,255z"/>
<path style="fill:#1689FC;" d="M392,255c0,8.399-6.599,15-15,15s-15-6.601-15-15v-3.9c0-0.3,0-0.3,0-0.3l-0.3-0.3
	c-2.101-22.801-21.9-40.5-44.7-40.5c-24.901,0-46,20.099-46,45c0,8.399-6.599,15-15,15V0c2.701,0,5.4,0,8.401,0.3
	C334.9,7.5,390.5,114.3,391.7,248.699c0,0.3,0,0.3,0,0.3C391.7,251.1,392,252.9,392,255z"/>
<g>
</g>
<g>
</g>
<g>
</g>
<g>
</g>
<g>
</g>
<g>
</g>
<g>
</g>
<g>
</g>
<g>
</g>
<g>
</g>
<g>
</g>
<g>
</g>
<g>
</g>
<g>
</g>
<g>
</g>
</svg>
