<?xml version="1.0" encoding="iso-8859-1"?>
<!-- Generator: Adobe Illustrator 19.0.0, SVG Export Plug-In . SVG Version: 6.00 Build 0)  -->
<svg version="1.1" id="Capa_1" xmlns="http://www.w3.org/2000/svg" xmlns:xlink="http://www.w3.org/1999/xlink" x="0px" y="0px"
	 viewBox="0 0 464 464" style="enable-background:new 0 0 464 464;" xml:space="preserve">
<path style="fill:#D3843D;" d="M0,112h464v96H0V112z"/>
<path style="fill:#AD6327;" d="M32,208h400v240H32V208z"/>
<path style="fill:#F99C5D;" d="M152,280h160v96H152V280z"/>
<path style="fill:#FDBD40;" d="M160,48V16H80v96h80h224V48H160z"/>
<g>
	<path style="fill:#FCF05A;" d="M176,304h16v16h-16V304z"/>
	<path style="fill:#FCF05A;" d="M208,304h80v16h-80V304z"/>
	<path style="fill:#FCF05A;" d="M176,336h16v16h-16V336z"/>
	<path style="fill:#FCF05A;" d="M208,336h80v16h-80V336z"/>
</g>
<path style="fill:#FDBD40;" d="M192,144h80c8.837,0,16,7.163,16,16l0,0c0,8.837-7.163,16-16,16h-80c-8.837,0-16-7.163-16-16l0,0
	C176,151.163,183.163,144,192,144z"/>
<path style="fill:#FCF05A;" d="M160,16h208v32H160V16z"/>
<g>
</g>
<g>
</g>
<g>
</g>
<g>
</g>
<g>
</g>
<g>
</g>
<g>
</g>
<g>
</g>
<g>
</g>
<g>
</g>
<g>
</g>
<g>
</g>
<g>
</g>
<g>
</g>
<g>
</g>
</svg>
