<?xml version="1.0" encoding="iso-8859-1"?>
<!-- Generator: Adobe Illustrator 19.0.0, SVG Export Plug-In . SVG Version: 6.00 Build 0)  -->
<svg version="1.1" id="Capa_1" xmlns="http://www.w3.org/2000/svg" xmlns:xlink="http://www.w3.org/1999/xlink" x="0px" y="0px"
	 viewBox="0 0 512.001 512.001" style="enable-background:new 0 0 512.001 512.001;" xml:space="preserve">
<g>
	<g>
		<path d="M392.274,192.388h-96.71v-17.064h0.517c4.143,0,7.5-3.358,7.5-7.5c0-4.142-3.357-7.5-7.5-7.5H270.37l-4.739-28.433
			c-1.107-6.643-4.898-12.208-10.146-15.708v-27.89l38.402,5.486c0.732,0.104,1.467,0.156,2.197,0.156
			c3.71,0,7.322-1.331,10.163-3.794c3.399-2.949,5.35-7.222,5.35-11.722V64.84c0-4.5-1.95-8.773-5.35-11.722
			c-3.4-2.949-7.909-4.274-12.36-3.639l-44.505,6.358c-4.308-4.751-10.527-7.74-17.431-7.74s-13.122,2.989-17.431,7.74
			l-44.504-6.358c-4.452-0.635-8.961,0.689-12.36,3.639c-3.399,2.949-5.35,7.221-5.35,11.722v13.579c0,4.5,1.95,8.773,5.35,11.722
			c2.841,2.463,6.453,3.794,10.163,3.794c0.73,0,1.465-0.052,2.197-0.156l38.403-5.486v27.889
			c-5.249,3.499-9.04,9.064-10.146,15.707l-4.74,28.434h-25.712c-4.143,0-7.5,3.358-7.5,7.5c0,4.142,3.357,7.5,7.5,7.5h0.517v17.064
			H62.375c-3.516-18.241-19.591-32.064-38.842-32.064H15v-8.532c0-4.142-3.357-7.5-7.5-7.5s-7.5,3.358-7.5,7.5v176.354
			c0,4.142,3.357,7.5,7.5,7.5s7.5-3.358,7.5-7.5v-8.532h8.532c19.252,0,35.327-13.824,38.842-32.064h105.973
			c0.09,8.573,4.638,16.312,11.927,20.24c14.147,7.625,32.499,11.824,51.677,11.824c19.178,0,37.53-4.199,51.678-11.824
			c7.289-3.928,11.837-11.667,11.927-20.24h96.719c13.545,0,24.564,11.02,24.564,24.564v24.048c0,8.556,6.96,15.516,15.516,15.516
			h64.129c8.556,0,15.517-6.96,15.517-15.516v-24.048C512,246.097,458.291,192.388,392.274,192.388z M48.096,280.049
			c0.001,13.545-11.019,24.565-24.564,24.565H15v-129.29h8.532c13.545,0,24.564,11.02,24.564,24.564V280.049z M168.339,272.549
			H63.097v-65.161h105.242V272.549z M255.484,70.12l40.524-5.79c0.063-0.009,0.234-0.032,0.411,0.121
			c0.178,0.154,0.178,0.326,0.178,0.39V78.42c0,0.064,0,0.236-0.178,0.39c-0.178,0.154-0.35,0.13-0.411,0.121l-40.523-5.789v-1.511
			c0-0.007-0.001-0.013-0.001-0.019V70.12z M223.42,71.63c0-0.003,0-0.007,0-0.01c0.005-4.7,3.829-8.522,8.531-8.522
			c4.705,0,8.532,3.828,8.532,8.532c0,4.704-3.827,8.532-8.532,8.532c-4.698,0-8.521-3.817-8.531-8.513V71.63z M223.42,93.555
			c2.647,1.034,5.523,1.607,8.531,1.607c3.01,0,5.886-0.574,8.533-1.608v18.673H223.42V93.555z M213.069,134.356
			c0.688-4.131,4.228-7.129,8.415-7.129h20.935c4.188,0,7.728,2.999,8.416,7.13l4.328,25.967H208.74L213.069,134.356z
			 M167.896,78.93c-0.064,0.009-0.233,0.034-0.411-0.121c-0.178-0.155-0.178-0.326-0.178-0.39V64.84c0-0.064,0-0.236,0.178-0.39
			c0.123-0.106,0.242-0.128,0.325-0.128c0.036,0,0.066,0.004,0.086,0.007l40.523,5.789v3.023L167.896,78.93z M496.483,336.678
			h-64.129c-0.284,0-0.516-0.231-0.516-0.516v-24.048c0-21.816-17.748-39.564-39.564-39.564h-96.71v-24.569
			c0-4.142-3.357-7.5-7.5-7.5s-7.5,3.358-7.5,7.5v39.311c0,3.104-1.591,5.967-4.053,7.294
			c-11.998,6.467-27.823,10.028-44.561,10.028c-16.736,0-32.562-3.562-44.56-10.028c-2.462-1.327-4.053-4.19-4.053-7.294V175.324
			h97.226v40.597c0,4.142,3.357,7.5,7.5,7.5s7.5-3.358,7.5-7.5v-8.532h96.71c57.746,0,104.726,46.979,104.726,104.726v24.047H497
			C497,336.447,496.769,336.678,496.483,336.678z"/>
	</g>
</g>
<g>
	<g>
		<path d="M469.723,378.956c-1.408-1.407-3.315-2.197-5.304-2.197s-3.896,0.79-5.304,2.197c-1.071,1.072-26.244,26.554-26.244,53.4
			c0,17.396,14.152,31.548,31.548,31.548s31.549-14.152,31.549-31.548C495.968,405.51,470.794,380.027,469.723,378.956z
			 M464.419,448.904c-9.125,0-16.548-7.423-16.548-16.548c0-14.06,10.08-28.762,16.548-36.749
			c6.471,7.989,16.549,22.69,16.549,36.749C480.968,441.481,473.544,448.904,464.419,448.904z"/>
	</g>
</g>
<g>
</g>
<g>
</g>
<g>
</g>
<g>
</g>
<g>
</g>
<g>
</g>
<g>
</g>
<g>
</g>
<g>
</g>
<g>
</g>
<g>
</g>
<g>
</g>
<g>
</g>
<g>
</g>
<g>
</g>
</svg>
